# xmcd CD database file
#
# Track frame offsets:
#	150
#	24450
#	46500
#	66150
#	87900
#	106500
#
# Disc length: 1718 seconds
#
# Revision: 0
# Processed by: cddbd v1.5.1PL0 Copyright (c) Steve Scherf et al.
# Submitted via: CDex 1.51
#
DISCID=3906b406
DTITLE=Surrounded - Surrounded
DYEAR=2005
DGENRE=Jazz
TTITLE0=Dance along
TTITLE1=New life
TTITLE2=Outta here
TTITLE3=She
TTITLE4=Shakespeare in love
TTITLE5=Save it for the sundays
EXTD=YEAR: 2005
EXTT0=
EXTT1=
EXTT2=
EXTT3=
EXTT4=
EXTT5=
PLAYORDER=
